<svg xmlns="http://www.w3.org/2000/svg" width="1400" height="780" viewBox="0 0 1400 780">
<rect width="100%" height="100%" fill="white"/>
<rect x="20" y="20" width="1360" height="740" rx="18" fill="#fcfcfd" stroke="#dbe4f0"/>
<text x="700.0" y="58" text-anchor="middle" font-family="Segoe UI, Arial, sans-serif" font-size="28" font-weight="700" fill="#1e3a8a">Smart Resume Matcher - Gantt Chart</text>
<text x="700.0" y="106" text-anchor="middle" font-family="Segoe UI, Arial, sans-serif" font-size="16" fill="#64748b">Project timeline shown in weeks only</text>
<line x1="290.0" y1="150" x2="290.0" y2="710" stroke="#d9e2ef" stroke-dasharray="5,5"/>
<text x="342.5" y="128" text-anchor="middle" font-family="Segoe UI, Arial, sans-serif" font-size="14" font-weight="600" fill="#334155">Week 1</text>
<line x1="395.0" y1="150" x2="395.0" y2="710" stroke="#d9e2ef" stroke-dasharray="5,5"/>
<text x="447.5" y="128" text-anchor="middle" font-family="Segoe UI, Arial, sans-serif" font-size="14" font-weight="600" fill="#334155">Week 2</text>
<line x1="500.0" y1="150" x2="500.0" y2="710" stroke="#d9e2ef" stroke-dasharray="5,5"/>
<text x="552.5" y="128" text-anchor="middle" font-family="Segoe UI, Arial, sans-serif" font-size="14" font-weight="600" fill="#334155">Week 3</text>
<line x1="605.0" y1="150" x2="605.0" y2="710" stroke="#d9e2ef" stroke-dasharray="5,5"/>
<text x="657.5" y="128" text-anchor="middle" font-family="Segoe UI, Arial, sans-serif" font-size="14" font-weight="600" fill="#334155">Week 4</text>
<line x1="710.0" y1="150" x2="710.0" y2="710" stroke="#d9e2ef" stroke-dasharray="5,5"/>
<text x="762.5" y="128" text-anchor="middle" font-family="Segoe UI, Arial, sans-serif" font-size="14" font-weight="600" fill="#334155">Week 5</text>
<line x1="815.0" y1="150" x2="815.0" y2="710" stroke="#d9e2ef" stroke-dasharray="5,5"/>
<text x="867.5" y="128" text-anchor="middle" font-family="Segoe UI, Arial, sans-serif" font-size="14" font-weight="600" fill="#334155">Week 6</text>
<line x1="920.0" y1="150" x2="920.0" y2="710" stroke="#d9e2ef" stroke-dasharray="5,5"/>
<text x="972.5" y="128" text-anchor="middle" font-family="Segoe UI, Arial, sans-serif" font-size="14" font-weight="600" fill="#334155">Week 7</text>
<line x1="1025.0" y1="150" x2="1025.0" y2="710" stroke="#d9e2ef" stroke-dasharray="5,5"/>
<text x="1077.5" y="128" text-anchor="middle" font-family="Segoe UI, Arial, sans-serif" font-size="14" font-weight="600" fill="#334155">Week 8</text>
<line x1="1130.0" y1="150" x2="1130.0" y2="710" stroke="#d9e2ef" stroke-dasharray="5,5"/>
<text x="1182.5" y="128" text-anchor="middle" font-family="Segoe UI, Arial, sans-serif" font-size="14" font-weight="600" fill="#334155">Week 9</text>
<line x1="1235.0" y1="150" x2="1235.0" y2="710" stroke="#d9e2ef" stroke-dasharray="5,5"/>
<text x="1287.5" y="128" text-anchor="middle" font-family="Segoe UI, Arial, sans-serif" font-size="14" font-weight="600" fill="#334155">Week 10</text>
<line x1="1340.0" y1="150" x2="1340.0" y2="710" stroke="#d9e2ef" stroke-dasharray="5,5"/>
<text x="274" y="174" text-anchor="end" font-family="Segoe UI, Arial, sans-serif" font-size="15" font-weight="600" fill="#1f2937">Literature Survey</text>
<line x1="290" y1="194.0" x2="1340" y2="194.0" stroke="#eef2f7"/>
<rect x="296.0" y="153.0" width="198.0" height="30" rx="10" fill="#7cb342"/>
<text x="395.0" y="173" text-anchor="middle" font-family="Segoe UI, Arial, sans-serif" font-size="13" font-weight="700" fill="white">Week 1-2</text>
<text x="274" y="226" text-anchor="end" font-family="Segoe UI, Arial, sans-serif" font-size="15" font-weight="600" fill="#1f2937">Requirement Analysis</text>
<line x1="290" y1="246.0" x2="1340" y2="246.0" stroke="#eef2f7"/>
<rect x="401.0" y="205.0" width="198.0" height="30" rx="10" fill="#66bb6a"/>
<text x="500.0" y="225" text-anchor="middle" font-family="Segoe UI, Arial, sans-serif" font-size="13" font-weight="700" fill="white">Week 2-3</text>
<text x="274" y="278" text-anchor="end" font-family="Segoe UI, Arial, sans-serif" font-size="15" font-weight="600" fill="#1f2937">System Design</text>
<line x1="290" y1="298.0" x2="1340" y2="298.0" stroke="#eef2f7"/>
<rect x="506.0" y="257.0" width="198.0" height="30" rx="10" fill="#29b6f6"/>
<text x="605.0" y="277" text-anchor="middle" font-family="Segoe UI, Arial, sans-serif" font-size="13" font-weight="700" fill="white">Week 3-4</text>
<text x="274" y="330" text-anchor="end" font-family="Segoe UI, Arial, sans-serif" font-size="15" font-weight="600" fill="#1f2937">PDF Parsing Module</text>
<line x1="290" y1="350.0" x2="1340" y2="350.0" stroke="#eef2f7"/>
<rect x="611.0" y="309.0" width="198.0" height="30" rx="10" fill="#42a5f5"/>
<text x="710.0" y="329" text-anchor="middle" font-family="Segoe UI, Arial, sans-serif" font-size="13" font-weight="700" fill="white">Week 4-5</text>
<text x="274" y="382" text-anchor="end" font-family="Segoe UI, Arial, sans-serif" font-size="15" font-weight="600" fill="#1f2937">NLP Engine (TF-IDF)</text>
<line x1="290" y1="402.0" x2="1340" y2="402.0" stroke="#eef2f7"/>
<rect x="716.0" y="361.0" width="198.0" height="30" rx="10" fill="#5c6bc0"/>
<text x="815.0" y="381" text-anchor="middle" font-family="Segoe UI, Arial, sans-serif" font-size="13" font-weight="700" fill="white">Week 5-6</text>
<text x="274" y="434" text-anchor="end" font-family="Segoe UI, Arial, sans-serif" font-size="15" font-weight="600" fill="#1f2937">Streamlit UI Development</text>
<line x1="290" y1="454.0" x2="1340" y2="454.0" stroke="#eef2f7"/>
<rect x="821.0" y="413.0" width="198.0" height="30" rx="10" fill="#26a69a"/>
<text x="920.0" y="433" text-anchor="middle" font-family="Segoe UI, Arial, sans-serif" font-size="13" font-weight="700" fill="white">Week 6-7</text>
<text x="274" y="486" text-anchor="end" font-family="Segoe UI, Arial, sans-serif" font-size="15" font-weight="600" fill="#1f2937">Groq API Integration</text>
<line x1="290" y1="506.0" x2="1340" y2="506.0" stroke="#eef2f7"/>
<rect x="926.0" y="465.0" width="198.0" height="30" rx="10" fill="#ffb300"/>
<text x="1025.0" y="485" text-anchor="middle" font-family="Segoe UI, Arial, sans-serif" font-size="13" font-weight="700" fill="white">Week 7-8</text>
<text x="274" y="538" text-anchor="end" font-family="Segoe UI, Arial, sans-serif" font-size="15" font-weight="600" fill="#1f2937">Bias Detection Module</text>
<line x1="290" y1="558.0" x2="1340" y2="558.0" stroke="#eef2f7"/>
<rect x="1031.0" y="517.0" width="198.0" height="30" rx="10" fill="#ef5350"/>
<text x="1130.0" y="537" text-anchor="middle" font-family="Segoe UI, Arial, sans-serif" font-size="13" font-weight="700" fill="white">Week 8-9</text>
<text x="274" y="590" text-anchor="end" font-family="Segoe UI, Arial, sans-serif" font-size="15" font-weight="600" fill="#1f2937">Testing &amp; Debugging</text>
<line x1="290" y1="610.0" x2="1340" y2="610.0" stroke="#eef2f7"/>
<rect x="1136.0" y="569.0" width="198.0" height="30" rx="10" fill="#8d6e63"/>
<text x="1235.0" y="589" text-anchor="middle" font-family="Segoe UI, Arial, sans-serif" font-size="13" font-weight="700" fill="white">Week 9-10</text>
<text x="274" y="642" text-anchor="end" font-family="Segoe UI, Arial, sans-serif" font-size="15" font-weight="600" fill="#1f2937">Documentation</text>
<line x1="290" y1="662.0" x2="1340" y2="662.0" stroke="#eef2f7"/>
<rect x="1136.0" y="621.0" width="198.0" height="30" rx="10" fill="#ab47bc"/>
<text x="1235.0" y="641" text-anchor="middle" font-family="Segoe UI, Arial, sans-serif" font-size="13" font-weight="700" fill="white">Week 9-10</text>
</svg>