<svg xmlns="http://www.w3.org/2000/svg" width="1220" height="560" viewBox="0 0 1220 560">
<rect width="100%" height="100%" fill="white"/>
<rect x="20" y="20" width="1180" height="520" rx="18" fill="#fcfcfd" stroke="#dbe4f0"/>
<text x="610.0" y="58" text-anchor="middle" font-family="Segoe UI, Arial, sans-serif" font-size="28" font-weight="700" fill="#1e3a8a">Smart Resume Matcher - Gantt Chart</text>
<line x1="290.0" y1="140" x2="290.0" y2="495" stroke="#d9e2ef" stroke-dasharray="5,5"/>
<text x="362.5" y="118" text-anchor="middle" font-family="Segoe UI, Arial, sans-serif" font-size="14" font-weight="600" fill="#334155">Week 1</text>
<line x1="435.0" y1="140" x2="435.0" y2="495" stroke="#d9e2ef" stroke-dasharray="5,5"/>
<text x="507.5" y="118" text-anchor="middle" font-family="Segoe UI, Arial, sans-serif" font-size="14" font-weight="600" fill="#334155">Week 2</text>
<line x1="580.0" y1="140" x2="580.0" y2="495" stroke="#d9e2ef" stroke-dasharray="5,5"/>
<text x="652.5" y="118" text-anchor="middle" font-family="Segoe UI, Arial, sans-serif" font-size="14" font-weight="600" fill="#334155">Week 3</text>
<line x1="725.0" y1="140" x2="725.0" y2="495" stroke="#d9e2ef" stroke-dasharray="5,5"/>
<text x="797.5" y="118" text-anchor="middle" font-family="Segoe UI, Arial, sans-serif" font-size="14" font-weight="600" fill="#334155">Week 4</text>
<line x1="870.0" y1="140" x2="870.0" y2="495" stroke="#d9e2ef" stroke-dasharray="5,5"/>
<text x="942.5" y="118" text-anchor="middle" font-family="Segoe UI, Arial, sans-serif" font-size="14" font-weight="600" fill="#334155">Week 5</text>
<line x1="1015.0" y1="140" x2="1015.0" y2="495" stroke="#d9e2ef" stroke-dasharray="5,5"/>
<text x="1087.5" y="118" text-anchor="middle" font-family="Segoe UI, Arial, sans-serif" font-size="14" font-weight="600" fill="#334155">Week 6</text>
<line x1="1160.0" y1="140" x2="1160.0" y2="495" stroke="#d9e2ef" stroke-dasharray="5,5"/>
<text x="274" y="164" text-anchor="end" font-family="Segoe UI, Arial, sans-serif" font-size="15" font-weight="600" fill="#1f2937">Literature Survey</text>
<line x1="290" y1="189.0" x2="1160" y2="189.0" stroke="#eef2f7"/>
<rect x="298.0" y="141.0" width="274.0" height="34" rx="10" fill="#7cb342"/>
<text x="435.0" y="163" text-anchor="middle" font-family="Segoe UI, Arial, sans-serif" font-size="13" font-weight="700" fill="white">Week 1-2</text>
<text x="274" y="226" text-anchor="end" font-family="Segoe UI, Arial, sans-serif" font-size="15" font-weight="600" fill="#1f2937">Requirement Analysis</text>
<line x1="290" y1="251.0" x2="1160" y2="251.0" stroke="#eef2f7"/>
<rect x="443.0" y="203.0" width="274.0" height="34" rx="10" fill="#66bb6a"/>
<text x="580.0" y="225" text-anchor="middle" font-family="Segoe UI, Arial, sans-serif" font-size="13" font-weight="700" fill="white">Week 2-3</text>
<text x="274" y="288" text-anchor="end" font-family="Segoe UI, Arial, sans-serif" font-size="15" font-weight="600" fill="#1f2937">System Design</text>
<line x1="290" y1="313.0" x2="1160" y2="313.0" stroke="#eef2f7"/>
<rect x="588.0" y="265.0" width="274.0" height="34" rx="10" fill="#29b6f6"/>
<text x="725.0" y="287" text-anchor="middle" font-family="Segoe UI, Arial, sans-serif" font-size="13" font-weight="700" fill="white">Week 3-4</text>
<text x="274" y="350" text-anchor="end" font-family="Segoe UI, Arial, sans-serif" font-size="15" font-weight="600" fill="#1f2937">PDF Parsing Module</text>
<line x1="290" y1="375.0" x2="1160" y2="375.0" stroke="#eef2f7"/>
<rect x="733.0" y="327.0" width="274.0" height="34" rx="10" fill="#42a5f5"/>
<text x="870.0" y="349" text-anchor="middle" font-family="Segoe UI, Arial, sans-serif" font-size="13" font-weight="700" fill="white">Week 4-5</text>
<text x="274" y="412" text-anchor="end" font-family="Segoe UI, Arial, sans-serif" font-size="15" font-weight="600" fill="#1f2937">NLP Engine (TF-IDF)</text>
<line x1="290" y1="437.0" x2="1160" y2="437.0" stroke="#eef2f7"/>
<rect x="878.0" y="389.0" width="274.0" height="34" rx="10" fill="#5c6bc0"/>
<text x="1015.0" y="411" text-anchor="middle" font-family="Segoe UI, Arial, sans-serif" font-size="13" font-weight="700" fill="white">Week 5-6</text>
</svg>